<mxfile host="app.diagrams.net" modified="2024-07-17T01:37:19.718Z" agent="Mozilla/5.0 (Windows NT 10.0; Win64; x64) AppleWebKit/537.36 (KHTML, like Gecko) Chrome/126.0.0.0 Safari/537.36 Edg/126.0.0.0" version="24.6.5" etag="wJyAyOF8yBl495lANJT2" type="github">
  <diagram name="第 1 页" id="1wNzYzNTYV8mSfnkADWx">
    <mxGraphModel>
      <root>
        <mxCell id="0" />
        <mxCell id="1" parent="0" />
      </root>
    </mxGraphModel>
  </diagram>
</mxfile>
